<?xml version="1.0" encoding="UTF-8"?>
<svg width="115px" height="80px" viewBox="0 0 115 80" version="1.1" xmlns="http://www.w3.org/2000/svg" xmlns:xlink="http://www.w3.org/1999/xlink">
    <!-- Generator: Sketch 51.3 (57544) - http://www.bohemiancoding.com/sketch -->
    <title>logo-BINUS-SQUARE</title>
    <desc>Created with Sketch.</desc>
    <defs></defs>
    <g id="Page-1" stroke="none" stroke-width="1" fill="none" fill-rule="evenodd">
        <g id="Artboard" transform="translate(-30.000000, -66.000000)">
            <g id="header+menu" transform="translate(0.000000, 46.000000)">
                <g id="logo-BINUS-SQUARE" transform="translate(30.000000, 20.000000)">
                    <polygon id="Fill-1" fill="#929497" points="45.2814953 37.5962617 46.7581308 37.5962617 46.7581308 36.1226168 45.2814953 36.1226168"></polygon>
                    <polygon id="Fill-2" fill="#929497" points="47.0190654 37.5962617 48.484486 37.5962617 48.484486 36.1226168 47.0190654 36.1226168"></polygon>
                    <polygon id="Fill-3" fill="#929497" points="48.7454206 37.5962617 50.2250467 37.5962617 50.2250467 36.1226168 48.7454206 36.1226168"></polygon>
                    <polygon id="Fill-4" fill="#929497" points="50.48 37.5962617 51.9566355 37.5962617 51.9566355 36.1226168 50.48 36.1226168"></polygon>
                    <polygon id="Fill-5" fill="#929497" points="45.2814953 35.8930841 46.7581308 35.8930841 46.7581308 34.4171963 45.2814953 34.4171963"></polygon>
                    <polygon id="Fill-6" fill="#929497" points="47.0190654 35.8930841 48.484486 35.8930841 48.484486 34.4171963 47.0190654 34.4171963"></polygon>
                    <polygon id="Fill-7" fill="#929497" points="48.7454206 35.8930841 50.2250467 35.8930841 50.2250467 34.4171963 48.7454206 34.4171963"></polygon>
                    <polygon id="Fill-8" fill="#929497" points="50.48 35.8930841 51.9566355 35.8930841 51.9566355 34.4171963 50.48 34.4171963"></polygon>
                    <polygon id="Fill-9" fill="#929497" points="53.9454206 35.8930841 55.4190654 35.8930841 55.4190654 34.4171963 53.9454206 34.4171963"></polygon>
                    <polygon id="Fill-10" fill="#929497" points="45.2814953 34.1936449 46.7581308 34.1936449 46.7581308 32.7207477 45.2814953 32.7207477"></polygon>
                    <polygon id="Fill-11" fill="#929497" points="47.0190654 34.1936449 48.484486 34.1936449 48.484486 32.7207477 47.0190654 32.7207477"></polygon>
                    <polygon id="Fill-12" fill="#929497" points="50.48 34.1936449 51.9566355 34.1936449 51.9566355 32.7207477 50.48 32.7207477"></polygon>
                    <polygon id="Fill-13" fill="#929497" points="52.2145794 34.1936449 53.6874766 34.1936449 53.6874766 32.7207477 52.2145794 32.7207477"></polygon>
                    <polygon id="Fill-14" fill="#929497" points="53.9454206 34.1936449 55.4190654 34.1936449 55.4190654 32.7207477 53.9454206 32.7207477"></polygon>
                    <polygon id="Fill-15" fill="#929497" points="47.0190654 32.4919626 48.484486 32.4919626 48.484486 31.0190654 47.0190654 31.0190654"></polygon>
                    <polygon id="Fill-16" fill="#929497" points="48.7454206 32.4919626 50.2250467 32.4919626 50.2250467 31.0190654 48.7454206 31.0190654"></polygon>
                    <polygon id="Fill-17" fill="#929497" points="50.48 32.4919626 51.9566355 32.4919626 51.9566355 31.0190654 50.48 31.0190654"></polygon>
                    <polygon id="Fill-18" fill="#929497" points="52.2145794 32.4919626 53.6874766 32.4919626 53.6874766 31.0190654 52.2145794 31.0190654"></polygon>
                    <polygon id="Fill-19" fill="#929497" points="55.675514 32.4919626 57.1558879 32.4919626 57.1558879 31.0190654 55.675514 31.0190654"></polygon>
                    <polygon id="Fill-20" fill="#929497" points="47.0190654 30.795514 48.484486 30.795514 48.484486 29.3181308 47.0190654 29.3181308"></polygon>
                    <polygon id="Fill-21" fill="#929497" points="48.7454206 30.795514 50.2250467 30.795514 50.2250467 29.3181308 48.7454206 29.3181308"></polygon>
                    <polygon id="Fill-22" fill="#929497" points="50.48 30.795514 51.9566355 30.795514 51.9566355 29.3181308 50.48 29.3181308"></polygon>
                    <polygon id="Fill-23" fill="#929497" points="52.2145794 30.795514 53.6874766 30.795514 53.6874766 29.3181308 52.2145794 29.3181308"></polygon>
                    <polygon id="Fill-24" fill="#929497" points="53.9454206 30.795514 55.4190654 30.795514 55.4190654 29.3181308 53.9454206 29.3181308"></polygon>
                    <polygon id="Fill-25" fill="#929497" points="55.675514 30.795514 57.1558879 30.795514 57.1558879 29.3181308 55.675514 29.3181308"></polygon>
                    <polygon id="Fill-26" fill="#929497" points="57.4063551 30.795514 58.8814953 30.795514 58.8814953 29.3181308 57.4063551 29.3181308"></polygon>
                    <polygon id="Fill-27" fill="#929497" points="60.8785047 30.795514 62.3566355 30.795514 62.3566355 29.3181308 60.8785047 29.3181308"></polygon>
                    <polygon id="Fill-28" fill="#929497" points="50.48 29.0938318 51.9566355 29.0938318 51.9566355 27.6201869 50.48 27.6201869"></polygon>
                    <polygon id="Fill-29" fill="#929497" points="52.2145794 29.0938318 53.6874766 29.0938318 53.6874766 27.6201869 52.2145794 27.6201869"></polygon>
                    <polygon id="Fill-30" fill="#929497" points="55.675514 29.0938318 57.1558879 29.0938318 57.1558879 27.6201869 55.675514 27.6201869"></polygon>
                    <polygon id="Fill-31" fill="#929497" points="59.1424299 29.0938318 60.6168224 29.0938318 60.6168224 27.6201869 59.1424299 27.6201869"></polygon>
                    <polygon id="Fill-32" fill="#929497" points="48.7454206 27.3951402 50.2250467 27.3951402 50.2250467 25.9192523 48.7454206 25.9192523"></polygon>
                    <polygon id="Fill-33" fill="#929497" points="50.48 27.3951402 51.9566355 27.3951402 51.9566355 25.9192523 50.48 25.9192523"></polygon>
                    <polygon id="Fill-34" fill="#929497" points="52.2145794 27.3951402 53.6874766 27.3951402 53.6874766 25.9192523 52.2145794 25.9192523"></polygon>
                    <polygon id="Fill-35" fill="#929497" points="53.9454206 27.3951402 55.4190654 27.3951402 55.4190654 25.9192523 53.9454206 25.9192523"></polygon>
                    <polygon id="Fill-36" fill="#929497" points="55.675514 27.3951402 57.1558879 27.3951402 57.1558879 25.9192523 55.675514 25.9192523"></polygon>
                    <polygon id="Fill-37" fill="#929497" points="59.1424299 27.3951402 60.6168224 27.3951402 60.6168224 25.9192523 59.1424299 25.9192523"></polygon>
                    <polygon id="Fill-38" fill="#929497" points="67.8041121 27.3951402 69.2837383 27.3951402 69.2837383 25.9192523 67.8041121 25.9192523"></polygon>
                    <polygon id="Fill-39" fill="#929497" points="50.48 25.6919626 51.9566355 25.6919626 51.9566355 24.2160748 50.48 24.2160748"></polygon>
                    <polygon id="Fill-40" fill="#929497" points="53.9454206 25.6919626 55.4190654 25.6919626 55.4190654 24.2160748 53.9454206 24.2160748"></polygon>
                    <polygon id="Fill-41" fill="#929497" points="57.4063551 25.6919626 58.8814953 25.6919626 58.8814953 24.2160748 57.4063551 24.2160748"></polygon>
                    <polygon id="Fill-42" fill="#929497" points="60.8785047 25.6919626 62.3566355 25.6919626 62.3566355 24.2160748 60.8785047 24.2160748"></polygon>
                    <polygon id="Fill-43" fill="#929497" points="55.675514 23.9925234 57.1558879 23.9925234 57.1558879 22.5166355 55.675514 22.5166355"></polygon>
                    <polygon id="Fill-44" fill="#929497" points="59.1424299 23.9925234 60.6168224 23.9925234 60.6168224 22.5166355 59.1424299 22.5166355"></polygon>
                    <polygon id="Fill-45" fill="#929497" points="57.4063551 22.2938318 58.8814953 22.2938318 58.8814953 20.8186916 57.4063551 20.8186916"></polygon>
                    <polygon id="Fill-46" fill="#929497" points="60.8785047 22.2938318 62.3566355 22.2938318 62.3566355 20.8186916 60.8785047 20.8186916"></polygon>
                    <polygon id="Fill-47" fill="#929497" points="64.3364486 22.2938318 65.8160748 22.2938318 65.8160748 20.8186916 64.3364486 20.8186916"></polygon>
                    <polygon id="Fill-48" fill="#929497" points="55.675514 20.5906542 57.1558879 20.5906542 57.1558879 19.1147664 55.675514 19.1147664"></polygon>
                    <polygon id="Fill-49" fill="#929497" points="64.3364486 18.8919626 65.8160748 18.8919626 65.8160748 17.4160748 64.3364486 17.4160748"></polygon>
                    <polygon id="Fill-50" fill="#929497" points="69.5342056 18.8919626 71.0130841 18.8919626 71.0130841 17.4160748 69.5342056 17.4160748"></polygon>
                    <polygon id="Fill-51" fill="#929497" points="64.3364486 17.193271 65.8160748 17.193271 65.8160748 15.7158879 64.3364486 15.7158879"></polygon>
                    <polygon id="Fill-52" fill="#929497" points="64.3364486 15.4915888 65.8160748 15.4915888 65.8160748 14.0164486 64.3364486 14.0164486"></polygon>
                    <polygon id="Fill-53" fill="#929497" points="66.075514 13.7928972 67.5469159 13.7928972 67.5469159 12.3147664 66.075514 12.3147664"></polygon>
                    <polygon id="Fill-54" fill="#231F20" points="41.2426168 33.5514019 45.0100935 33.5514019 45.0100935 32.8441121 41.2426168 32.8441121"></polygon>
                    <path d="M37.0363364,17.4844112 C36.4299813,17.4186168 36.4598879,17.609271 35.6606355,17.7378692 C34.8598879,17.8702056 34.4038131,18.6978692 35.2090467,18.6059065 C36.0120374,18.5079626 36.3649346,18.4773084 37.0699813,18.1842243 C37.7720374,17.8993645 37.0363364,17.4844112 37.0363364,17.4844112 Z M37.6509159,20.4616075 C36.8157757,20.3674019 36.8823178,20.651514 36.6505421,20.7666542 C36.3649346,20.9094579 37.1963364,21.0395514 37.8430654,21.0148785 C38.4845607,20.976 38.4845607,20.5580561 37.6509159,20.4616075 Z M45.0482991,37.8821682 L45.2823178,37.8821682 L51.3712897,37.8821682 C49.615028,39.8500187 45.4767103,43.1838505 36.1032523,46.5109533 C19.4856822,52.4167477 3.24493458,45.3259065 12.7537196,31.8253458 C22.0494206,18.6059065 36.7798879,15.4911402 38.3230654,15.2339439 C39.857271,14.9767477 42.4277383,14.8197383 41.1776449,15.2002991 C39.9245607,15.5905794 37.5843738,16.5543178 37.7167103,16.902729 C37.8430654,17.2601121 39.3802617,16.8728224 40.2408224,16.742729 C41.1133458,16.6148785 41.1133458,17.224972 40.5989533,17.4844112 C40.0845607,17.7378692 39.6703551,17.4844112 39.9896075,17.7999252 C40.3133458,18.1236636 40.1197009,18.3464673 39.6045607,18.573757 C39.0939065,18.7965607 37.6800748,18.6978692 37.1963364,19.1517009 C36.7163364,19.5935701 38.0935327,19.5935701 39.059514,19.2130093 C40.026243,18.8294579 40.2408224,18.7330093 41.308486,18.6679626 C42.3604486,18.6059065 41.3675514,19.2481495 41.8841869,19.4709533 C42.3993271,19.6952523 44.995215,19.1816075 44.3230654,19.5935701 C43.6516636,20.016 45.6090467,20.016 44.257271,20.4017944 C42.908486,20.7860935 30.268486,22.1999252 20.5832523,28.5498318 C10.8935327,34.902729 9.61054206,48.0511402 26.101757,44.7816075 C38.1241869,42.3950654 43.1544673,36.9057196 44.995215,34.1087103 L44.995215,37.8821682 L45.0482991,37.8821682 Z" id="Fill-55" fill="#929497"></path>
                    <path d="M23.9726355,33.4021682 C23.9726355,29.0567477 27.4881495,25.5389907 31.8275888,25.5389907 C36.173757,25.5389907 39.6922617,29.0567477 39.6922617,33.4021682 C39.6922617,37.7408598 36.173757,41.2578692 31.8275888,41.2578692 C27.4881495,41.2578692 23.9726355,37.7408598 23.9726355,33.4021682" id="Fill-57" fill="#F58A1E"></path>
                    <path d="M26.5011589,29.9778692 C26.1534953,29.204785 26.5078879,28.2926355 27.278729,27.9457196 C28.0622804,27.6032897 28.9699439,27.9509533 29.3168598,28.7277757 C29.6660187,29.5038505 29.3168598,30.416 28.5385421,30.7614206 C27.7602243,31.1083364 26.8450841,30.7554393 26.5011589,29.9778692" id="Fill-59" fill="#FEFEFE"></path>
                    <path d="M44.0317757,15.201271 C44.0317757,14.8476262 42.5237383,14.8199626 42.3009346,15.1407103 C42.0773832,15.4599626 41.2751402,15.3336075 41.2078505,15.6184673 C41.1502804,15.9130467 41.884486,15.841271 42.5237383,15.5922991 C43.1697196,15.3336075 44.0317757,15.5564112 44.0317757,15.201271" id="Fill-61" fill="#929497"></path>
                    <path d="M45.155514,16.1964112 C44.9327103,15.9414579 43.4538318,15.841271 43.002243,16.0670654 C42.5558879,16.2951028 41.9786916,16.5201495 41.6885981,16.5201495 C41.4007477,16.5201495 41.8194393,16.8722991 42.588785,16.8722991 C43.3581308,16.8722991 43.2609346,16.6779065 44.0317757,16.8072523 C44.7996262,16.9365981 45.3753271,16.4580935 45.155514,16.1964112" id="Fill-63" fill="#929497"></path>
                    <path d="M43.0023178,17.5431776 C42.2053084,17.7375701 42.0139065,17.8347664 41.5959626,17.9327103 C41.172785,18.0261682 41.5615701,18.3484112 42.4909159,18.1547664 C43.426243,17.9656075 43.7103551,17.8990654 44.1589533,17.8699065 C44.6105421,17.8347664 44.5447477,17.4183178 43.9989533,17.3846729 C43.4561495,17.3547664 43.0023178,17.5431776 43.0023178,17.5431776" id="Fill-65" fill="#929497"></path>
                    <path d="M46.404785,17.2551776 C46.1625421,16.8903178 45.4103925,17.1273271 45.0888972,17.3194766 C44.7748785,17.5153645 44.8339439,17.543028 45.3752523,17.638729 C45.9262804,17.7381682 46.4212336,17.4181682 46.404785,17.2551776" id="Fill-67" fill="#929497"></path>
                    <path d="M48.3936449,17.9940187 C48.1947664,17.8990654 46.5970093,18.1233645 46.3420561,18.0605607 C46.0826168,17.9940187 45.7334579,18.3147664 45.1861682,18.3147664 C44.6426168,18.3147664 43.7753271,18.3499065 44.0960748,18.7005607 C44.4205607,19.0527103 45.8,18.8628037 46.4048598,18.7297196 C47.0186916,18.6056075 47.6579439,18.3147664 48.2351402,18.4448598 C48.8093458,18.571215 48.4781308,18.0164486 48.3936449,17.9940187" id="Fill-69" fill="#929497"></path>
                    <polygon id="Fill-71" fill="#231F20" points="2.77757009 33.524486 22.1517757 33.524486 22.1517757 32.8179439 2.77757009 32.8179439"></polygon>
                    <polygon id="Fill-73" fill="#231F20" points="31.4945794 63.0691589 32.1936449 63.0691589 32.1936449 43.6971963 31.4945794 43.6971963"></polygon>
                    <polygon id="Fill-74" fill="#231F20" points="31.4945794 22.9001869 32.1936449 22.9001869 32.1936449 3.53046729 31.4945794 3.53046729"></polygon>
                    <polygon id="Fill-75" fill="#231F20" points="55.6942056 33.5506542 111.831028 33.5506542 111.831028 32.8441121 55.6942056 32.8441121"></polygon>
                    <path d="M111.773458,33.1948411 C111.773458,32.4187664 112.40972,31.7847477 113.188785,31.7847477 C113.970841,31.7847477 114.601121,32.4187664 114.601121,33.1948411 C114.601121,33.9768972 113.970841,34.6086729 113.188785,34.6086729 C112.40972,34.6086729 111.773458,33.9768972 111.773458,33.1948411" id="Fill-76" fill="#D72C24"></path>
                    <path d="M30.4322243,2.15730841 C30.4322243,1.38048598 31.0535327,0.747214953 31.8415701,0.747214953 C32.6206355,0.747214953 33.2531589,1.38048598 33.2531589,2.15730841 C33.2531589,2.93861682 32.6206355,3.5748785 31.8415701,3.5748785 C31.0535327,3.5748785 30.4322243,2.93861682 30.4322243,2.15730841" id="Fill-77" fill="#D72C24"></path>
                    <path d="M50.1825047,58.3474393 C50.1825047,57.9122991 50.0666168,57.5736075 49.8348411,57.3231402 C49.5925981,57.0749159 49.232972,56.9493084 48.7454953,56.9493084 L45.5387664,56.9493084 L45.5387664,59.7807103 L48.7238131,59.7807103 C49.2225047,59.7807103 49.5925981,59.6468785 49.8348411,59.3777196 C50.0666168,59.1040748 50.1825047,58.7638879 50.1825047,58.3474393 M49.8460561,52.7332336 C49.8460561,52.4132336 49.7615701,52.1358505 49.5754019,51.9100561 C49.3974579,51.690243 49.068486,51.5765981 48.5825047,51.5765981 L45.5387664,51.5765981 L45.5387664,53.8928598 L48.5825047,53.8928598 C49.0542804,53.8928598 49.3847477,53.7851963 49.5709159,53.5706168 C49.7585794,53.3642617 49.8460561,53.0838879 49.8460561,52.7332336 M54.1406355,58.2696822 C54.1406355,59.768 53.6868037,60.9208972 52.7866168,61.7380935 C51.8811963,62.561271 50.508486,62.9694953 48.6610093,62.9694953 L41.6643738,62.9694953 L41.6643738,48.3930467 L48.7066168,48.3930467 C50.508486,48.3930467 51.8101682,48.719028 52.6109159,49.3694953 C53.4064299,50.0266916 53.8086729,50.9642617 53.8086729,52.1889346 C53.8086729,52.9829533 53.6367103,53.5908037 53.2935327,54.0042617 C52.9570841,54.4214579 52.5443738,54.7706168 52.0554019,55.0472523 C52.7238131,55.3208972 53.2434393,55.7208972 53.5963364,56.2442617 C53.9604486,56.7594019 54.1406355,57.439028 54.1406355,58.2696822" id="Fill-78" fill="#231F20"></path>
                    <polygon id="Fill-79" fill="#231F20" points="55.7592523 62.968972 59.8923364 62.968972 59.8923364 48.3925234 55.7592523 48.3925234"></polygon>
                    <path d="M71.5084112,62.9691963 L68.0280374,58.156486 C67.8598131,57.9336822 67.6743925,57.660785 67.4471028,57.3348037 C67.2235514,57.0080748 66.9985047,56.6813458 66.7891589,56.3561121 C66.5760748,56.0316262 66.3779439,55.7183551 66.1857944,55.425271 C66.0048598,55.1389159 65.8523364,54.9093832 65.7566355,54.7426542 C65.7872897,54.9093832 65.8029907,55.1396636 65.8194393,55.4394766 C65.8343925,55.743028 65.8493458,56.065271 65.8598131,56.4196636 C65.8785047,56.7725607 65.8852336,57.1366729 65.8852336,57.5112523 L65.8852336,58.5093832 L65.8852336,62.9691963 L62.0093458,62.9691963 L62.0093458,48.3927477 L65.5719626,48.3927477 L68.7801869,52.7037757 C68.9446729,52.9213458 69.1457944,53.198729 69.3715888,53.5381682 C69.6018692,53.8656449 69.8284112,54.1991028 70.048972,54.5362991 C70.2747664,54.8645234 70.4721495,55.183028 70.6515888,55.4731215 C70.835514,55.7624673 70.9671028,55.985271 71.0500935,56.1362991 C71.0231776,55.9710654 70.9985047,55.743028 70.9895327,55.4394766 C70.9753271,55.1396636 70.9596262,54.8181682 70.9394393,54.4622804 C70.9319626,54.1034019 70.924486,53.7445234 70.924486,53.3684486 L70.924486,52.3665794 L70.924486,48.3927477 L74.7988785,48.3927477 L74.7988785,62.9691963 L71.5084112,62.9691963 Z" id="Fill-80" fill="#231F20"></path>
                    <path d="M89.033271,59.6989159 C88.7072897,60.5168598 88.2519626,61.1882617 87.6740187,61.7063925 C87.0990654,62.2260187 86.4239252,62.6065794 85.6358879,62.8405981 C84.8471028,63.0761121 84.0037383,63.1957383 83.0871028,63.1957383 C82.1674766,63.1957383 81.3196262,63.0761121 80.5442991,62.8405981 C79.7682243,62.6065794 79.0960748,62.2260187 78.5338318,61.7063925 C77.9768224,61.1882617 77.5334579,60.5168598 77.2149533,59.6989159 C76.8874766,58.8839626 76.7349533,57.8895701 76.7349533,56.7441495 L76.7349533,48.3949907 L80.8545794,48.3949907 L80.8545794,56.7441495 C80.8545794,57.6435888 81.042243,58.3553645 81.4056075,58.865271 C81.7824299,59.3811589 82.3536449,59.6361121 83.1469159,59.6361121 C83.9379439,59.6361121 84.5136449,59.3811589 84.8650467,58.865271 C85.2179439,58.3553645 85.3966355,57.6435888 85.3966355,56.7441495 L85.3966355,48.3949907 L89.5229907,48.3949907 L89.5229907,56.7441495 C89.5229907,57.8895701 89.357757,58.8839626 89.033271,59.6989159" id="Fill-81" fill="#231F20"></path>
                    <path d="M103.054879,58.4934579 C103.054879,59.3271028 102.906093,60.0343925 102.604037,60.6370093 C102.307215,61.2314019 101.893009,61.7188785 101.351701,62.0934579 C100.825346,62.4628037 100.191327,62.7461682 99.4548785,62.9278505 C98.7161869,63.1072897 97.9109533,63.1985047 97.0391776,63.1985047 C95.8586168,63.1985047 94.7288972,63.0250467 93.656,62.6856075 C92.5793645,62.3446729 91.6597383,61.926729 90.8896449,61.4280374 L92.8522617,58.2609346 C93.1109533,58.4433645 93.424972,58.6205607 93.7801121,58.7895327 C94.129271,58.968972 94.4986168,59.126729 94.8836636,59.2583178 C95.262729,59.3996262 95.6500187,59.5065421 96.0365607,59.5947664 C96.4275888,59.6770093 96.7864673,59.7211215 97.1199252,59.7211215 C97.8376822,59.7211215 98.3416075,59.6485981 98.6085234,59.5065421 C98.8806729,59.3749533 99.0189907,59.1297196 99.0189907,58.7828037 C99.0189907,58.6474766 98.9778692,58.5173832 98.9053458,58.4074766 C98.8268411,58.2975701 98.6885234,58.1884112 98.5023551,58.084486 C98.3146916,57.9783178 98.0694579,57.8766355 97.747215,57.768972 C97.424972,57.668785 97.0234766,57.5588785 96.5374953,57.4497196 C95.6657196,57.2426168 94.8956262,57.0205607 94.2511402,56.7842991 C93.5924486,56.548785 93.0481495,56.2497196 92.627215,55.8968224 C92.1928224,55.5446729 91.8690841,55.12 91.6522617,54.6115888 C91.4376822,54.1158879 91.3322617,53.5005607 91.3322617,52.7641121 C91.3322617,52.086729 91.4653458,51.4594393 91.7367477,50.8897196 C92.0096449,50.3170093 92.3954393,49.835514 92.8963738,49.433271 C93.3898318,49.031028 93.9924486,48.7192523 94.7019813,48.4949533 C95.4100187,48.2714019 96.2032897,48.1607477 97.0773084,48.1607477 C98.3311402,48.1607477 99.4122617,48.3065421 100.337121,48.5981308 C101.257495,48.8904673 102.110579,49.3061682 102.886654,49.846729 L100.927028,53.0115888 C100.279551,52.571215 99.6298318,52.2272897 98.9726355,51.995514 C98.3199252,51.755514 97.6186168,51.6388785 96.8687103,51.6388785 C96.2571215,51.6388785 95.8586168,51.7226168 95.6657196,51.8848598 C95.4728224,52.0568224 95.3756262,52.2714019 95.3756262,52.5360748 C95.3756262,52.6714019 95.4100187,52.7970093 95.4877757,52.8964486 C95.5588037,53.0011215 95.6933832,53.0998131 95.8668411,53.1902804 C96.051514,53.2762617 96.2967477,53.3719626 96.5958131,53.4624299 C96.9023551,53.5514019 97.2956262,53.6530841 97.7666542,53.7652336 C98.6817944,53.9872897 99.4750654,54.2257944 100.140486,54.4904673 C100.805159,54.7573832 101.351701,55.0646729 101.780112,55.4280374 C102.214505,55.7899065 102.535252,56.2228037 102.741607,56.72 C102.950206,57.2216822 103.054879,57.8078505 103.054879,58.4934579" id="Fill-82" fill="#231F20"></path>
                    <path d="M45.1964112,79.0782804 C43.4894953,79.0782804 42.0031402,78.3642617 41.2270654,77.2255701 L42.6999626,75.9126729 C43.414729,76.7433271 44.3358505,77.0797757 45.3122991,77.0797757 C46.5205234,77.0797757 47.0909907,76.7433271 47.0909907,75.972486 C47.0909907,75.3145421 46.7410841,75.0222056 44.8158505,74.5855701 C42.9362243,74.1466916 41.6210841,73.5485607 41.6210841,71.5373458 C41.6210841,69.6846355 43.2554766,68.5481869 45.2689346,68.5481869 C46.8577196,68.5481869 48.0248224,69.1448224 48.9878131,70.1519252 L47.5156636,71.5807103 C46.8577196,70.9100561 46.1272523,70.5309907 45.1964112,70.5309907 C44.0995888,70.5309907 43.7354766,70.9975327 43.7354766,71.4498692 C43.7354766,72.0921121 44.1736075,72.294729 45.7960374,72.6745421 C47.412486,73.0543551 49.2076262,73.6098692 49.2076262,75.8237009 C49.2076262,77.7661308 47.9829533,79.0782804 45.1964112,79.0782804" id="Fill-83" fill="#F26F3A"></path>
                    <path d="M55.2621308,70.5758505 C53.6120374,70.5758505 52.9271776,71.9896822 52.9271776,73.8132336 C52.9271776,75.6801495 53.6561495,77.1530467 55.3032523,77.1530467 C55.4191402,77.1530467 55.539514,77.1365981 55.6419439,77.1238879 L54.9503551,76.1018318 L56.5144673,75.0805234 L57.1694206,76.056972 C57.4894206,75.490243 57.5940935,74.6722991 57.5940935,73.8132336 C57.5940935,71.9896822 56.906243,70.5758505 55.2621308,70.5758505 M58.3066168,77.7362243 L59.0669907,78.8465047 L57.5081121,79.8655701 L56.7754019,78.8016449 C56.3111028,78.9900561 55.8266168,79.0782804 55.2621308,79.0782804 C52.4725981,79.0782804 50.824,76.919028 50.824,73.8132336 C50.824,70.7081869 52.4725981,68.5481869 55.2621308,68.5481869 C58.0456822,68.5481869 59.6935327,70.7081869 59.6935327,73.8132336 C59.6935327,75.5627664 59.1963364,76.8173458 58.3066168,77.7362243" id="Fill-84" fill="#F26F3A"></path>
                    <path d="M65.8345421,79.0782804 C63.370243,79.0782804 61.7066916,77.416972 61.7066916,74.439028 L61.7066916,68.7089346 L63.7485607,68.7089346 L63.7485607,74.4091215 C63.7485607,76.0442617 64.5380935,77.0797757 65.8345421,77.0797757 C67.130243,77.0797757 67.9339813,76.0726729 67.9339813,74.439028 L67.9339813,68.7089346 L69.9765981,68.7089346 L69.9765981,74.4091215 C69.9765981,77.3713645 68.4304299,79.0782804 65.8345421,79.0782804" id="Fill-85" fill="#F26F3A"></path>
                    <path d="M77.1656075,72.850243 C76.9637383,72.2528598 76.7596262,71.639028 76.6557009,71.259215 C76.5547664,71.639028 76.3506542,72.2528598 76.1472897,72.850243 L75.4915888,74.7029533 L77.8250467,74.7029533 L77.1656075,72.850243 Z M79.3263551,78.9175327 L78.5248598,76.6416449 L74.791028,76.6416449 L73.9872897,78.9175327 L71.8018692,78.9175327 L75.7091589,68.7089346 L77.691215,68.7089346 L81.5715888,78.9175327 L79.3263551,78.9175327 Z" id="Fill-86" fill="#F26F3A"></path>
                    <path d="M88.180486,70.6918879 L85.5090841,70.6918879 L85.5090841,73.3161869 L88.180486,73.3161869 C89.127028,73.3161869 89.6399252,72.8788037 89.6399252,71.9890841 C89.6399252,71.0709533 89.0851589,70.6918879 88.180486,70.6918879 Z M89.3909533,78.9176822 L87.5688972,75.2421682 L85.5090841,75.2421682 L85.5090841,78.9176822 L83.4702056,78.9176822 L83.4702056,68.7090841 L88.2268411,68.7090841 C90.1490841,68.7090841 91.7378692,69.7730093 91.7378692,71.9442243 C91.7378692,73.4761869 91.0844112,74.4391776 89.7834766,74.9483364 L91.7378692,78.9176822 L89.3909533,78.9176822 Z" id="Fill-87" fill="#F26F3A"></path>
                    <polygon id="Fill-88" fill="#F26F3A" points="93.8821682 78.9176822 93.8821682 68.7090841 100.970766 68.7090841 100.970766 70.7083364 95.9232897 70.7083364 95.9232897 72.4698318 98.8541308 72.4698318 98.8541308 74.4548785 95.9232897 74.4548785 95.9232897 76.9191776 101.188336 76.9191776 101.188336 78.9176822"></polygon>
                    <path d="M30.4460561,64.4375327 C30.4460561,63.6577196 31.0770841,63.0214579 31.8561495,63.0214579 C32.6337196,63.0214579 33.2647477,63.6577196 33.2647477,64.4375327 C33.2647477,65.2158505 32.6337196,65.8491215 31.8561495,65.8491215 C31.0770841,65.8491215 30.4460561,65.2158505 30.4460561,64.4375327" id="Fill-89" fill="#D72C24"></path>
                    <path d="M0,33.1714393 C0,32.3923738 0.628037383,31.7605981 1.40635514,31.7605981 C2.19364486,31.7605981 2.82093458,32.3923738 2.82093458,33.1714393 C2.82093458,33.9512523 2.19364486,34.5837757 1.40635514,34.5837757 C0.628037383,34.5837757 0,33.9512523 0,33.1714393" id="Fill-90" fill="#D72C24"></path>
                </g>
            </g>
        </g>
    </g>
</svg>