<?xml version="1.0" encoding="utf-8"?>
<!-- Generator: Adobe Illustrator 22.0.0, SVG Export Plug-In . SVG Version: 6.00 Build 0)  -->
<svg version="1.1" id="Layer_1" xmlns="http://www.w3.org/2000/svg" xmlns:xlink="http://www.w3.org/1999/xlink" x="0px" y="0px"
	 viewBox="0 0 113.9 246.6" style="enable-background:new 0 0 113.9 246.6;" xml:space="preserve">
<style type="text/css">
	.st0{fill:#A0C755;}
	.st1{opacity:0.6;fill:#F9F19A;}
	.st2{fill:#E6E468;}
	.st3{opacity:0.4;fill:#E6E468;}
	.st4{opacity:0.4;fill:#F9F19A;}
	.st5{opacity:0.65;fill:#A0C755;}
	.st6{fill:#FFFFFF;}
	.st7{opacity:0.5;fill:#F9F19A;}
	.st8{opacity:0.25;fill:#FFFFFF;}
	.st9{opacity:0.2;fill:#FFFFFF;}
	.st10{opacity:0.5;fill:#FFFFFF;}
	.st11{opacity:0.3;fill:#FFFFFF;}
	.st12{opacity:0.65;fill:#E6E468;}
	.st13{opacity:0.4;fill:#FFFFFF;}
	.st14{opacity:0.8;fill:#F9F19A;}
	.st15{opacity:0.7;fill:#E6E468;}
	.st16{opacity:0.88;fill:#F9F19A;}
	.st17{opacity:0.65;fill:#B9D15E;}
	.st18{fill:#76B742;}
	.st19{opacity:0.55;fill:#F9F19A;}
</style>
<g>
	<rect y="75.9" class="st0" width="75.9" height="37.9"/>
	<rect x="38" y="113.8" class="st1" width="75.9" height="113.8"/>
	<rect x="75.9" y="113.8" class="st2" width="38" height="37.9"/>
	<rect x="75.9" y="151.8" class="st3" width="38" height="38"/>
	<rect x="75.9" y="189.8" class="st4" width="38" height="37.8"/>
	<path class="st5" d="M94.9,132.8c-10.5,0-19-8.5-19-19h38C113.9,124.3,105.4,132.8,94.9,132.8z"/>
	<path class="st6" d="M94.8,246.6c-10.5,0-19-8.5-19-19h38C113.8,238.1,105.3,246.6,94.8,246.6z"/>
	<path class="st7" d="M94.8,246.6c-10.5,0-19-8.5-19-19h38C113.8,238.1,105.3,246.6,94.8,246.6z"/>
	<path class="st8" d="M94.9,170.7c0-10.5,8.5-19,19-19v37.9C103.4,189.7,94.9,181.2,94.9,170.7z"/>
	<rect x="38" y="189.8" class="st9" width="37.8" height="37.9"/>
	<path class="st10" d="M56.9,208.8c0-10.5,8.5-19,19-19v37.8C65.4,227.6,56.9,219.3,56.9,208.8z"/>
	<path class="st11" d="M57,208.8c0,10.5-8.5,18.9-19,18.9v-37.8C48.5,189.8,57,198.3,57,208.8z"/>
	<path class="st12" d="M19,132.8c-10.5,0-19-8.5-19-19h37.9C37.9,124.3,29.5,132.8,19,132.8z"/>
	<path class="st12" d="M19,132.8c0,10.5-8.5,19-19,19v-37.9C10.5,113.8,19,122.3,19,132.8z"/>
	<path class="st13" d="M94.9,208.7c10.5,0,19,8.5,19,19H75.9C75.9,217.2,84.4,208.7,94.9,208.7z"/>
	<path class="st8" d="M94.9,208.8c0,10.5-8.5,18.9-19,18.9v-37.8C86.4,189.8,94.9,198.3,94.9,208.8z"/>
	<path class="st14" d="M56.9,170.8c-10.5,0-19-8.5-19-19h37.9C75.9,162.2,67.4,170.8,56.9,170.8z"/>
	<path class="st13" d="M57,170.8c0,10.5-8.5,19-19,19v-38C48.5,151.8,57,160.4,57,170.8z"/>
	<rect y="113.8" class="st15" width="75.9" height="37.9"/>
	<path class="st16" d="M56.9,132.8c0-10.5,8.5-19,19-19v37.9C65.4,151.8,56.9,143.3,56.9,132.8z"/>
	<path class="st17" d="M56.9,132.8c10.5,0,19,8.5,19,19H38C38,141.3,46.4,132.8,56.9,132.8z"/>
	<polygon class="st18" points="0,0 0,75.9 75.9,75.9 75.9,113.8 113.9,113.8 113.9,0 	"/>
	<rect y="151.8" class="st19" width="75.9" height="38"/>
</g>
</svg>
